<?xml version="1.0" standalone="no"?>
<!DOCTYPE svg PUBLIC "-//W3C//DTD SVG 1.1//EN" "http://www.w3.org/Graphics/SVG/1.1/DTD/svg11.dtd" >
<svg xmlns="http://www.w3.org/2000/svg">
<metadata>Generated by IcoMoon</metadata>
<defs>
<font id="icomoon" horiz-adv-x="1024">
<font-face units-per-em="1024" ascent="960" descent="-64" />
<missing-glyph horiz-adv-x="1024" />
<glyph unicode="&#x20;" horiz-adv-x="512" d="" />
<glyph unicode="&#xe908;" glyph-name="icon_back" d="M130.56 486.4l335.36 309.76c12.8 15.36 12.8 38.4 0 51.2-12.8 15.36-35.84 15.36-51.2 0l-399.36-371.2c0 0-2.56 0-2.56-2.56-7.68-7.68-10.24-17.92-10.24-25.6 0-10.24 2.56-20.48 10.24-25.6 0 0 2.56 0 2.56-2.56l399.36-371.2c12.8-15.36 35.84-15.36 51.2 0 12.8 15.36 12.8 38.4 0 51.2l-335.36 309.76h857.6c20.48 0 35.84 17.92 35.84 38.4s-15.36 38.4-35.84 38.4h-857.6z" />
<glyph unicode="&#xe910;" glyph-name="icon_back_down" d="M768 448l-512-512v171.52l340.48 340.48-340.48 340.48v171.52z" />
<glyph unicode="&#xe911;" glyph-name="icon_back_up" d="M768 960v-171.52l-340.48-340.48 340.48-340.48v-171.52l-512 512z" />
<glyph unicode="&#xe94b;" glyph-name="icon_play" d="M512 960c281.6 0 512-230.4 512-512s-230.4-512-512-512-512 230.4-512 512 230.4 512 512 512zM437.76 665.6c-2.56 2.56-7.68 2.56-10.24 2.56-10.24 0-17.92-7.68-17.92-17.92v-404.48c0-5.12 2.56-7.68 5.12-10.24 5.12-7.68 17.92-7.68 23.040-2.56l240.64 212.48c0 0 2.56 2.56 2.56 2.56 5.12 7.68 5.12 17.92-2.56 23.040l-240.64 194.56z" />
<glyph unicode="&#xe94f;" glyph-name="icon_select_active" d="M512 960c281.6 0 512-230.4 512-512s-230.4-512-512-512-512 230.4-512 512 230.4 512 512 512zM709.12 640l-276.48-317.44-102.4 81.92c-15.36 12.8-35.84 10.24-48.64-5.12s-10.24-35.84 5.12-48.64l128-102.4c15.36-10.24 35.84-10.24 46.080 5.12l299.52 340.48c12.8 15.36 10.24 35.84-2.56 48.64s-38.4 12.8-48.64-2.56z" />
<glyph unicode="&#xe950;" glyph-name="icon_sign" d="M268.8 422.4h358.4c15.36 0 25.6-10.24 25.6-25.6s-10.24-25.6-25.6-25.6h-358.4c-15.36 0-25.6 10.24-25.6 25.6s10.24 25.6 25.6 25.6zM568.32 581.12l360.96 360.96c10.24 10.24 25.6 10.24 35.84 0s10.24-25.6 0-35.84l-360.96-360.96c-10.24-10.24-25.6-10.24-35.84 0-10.24 7.68-10.24 25.6 0 35.84zM268.8 243.2h486.4c15.36 0 25.6-10.24 25.6-25.6s-10.24-25.6-25.6-25.6h-486.4c-15.36 0-25.6 10.24-25.6 25.6s10.24 25.6 25.6 25.6zM683.52 957.44c15.36 0 25.6-12.8 25.6-25.6 0-15.36-12.8-25.6-25.6-25.6l-491.52 2.56c-56.32 0-102.4-46.080-102.4-102.4 0 0 0-238.080 0-716.8 0-56.32 46.080-102.4 102.4-102.4h640c56.32 0 102.4 46.080 102.4 102.4v435.2c0 15.36 10.24 25.6 25.6 25.6s25.6-10.24 25.6-25.6v-435.2c0-84.48-69.12-153.6-153.6-153.6h-640c-84.48 0-153.6 69.12-153.6 153.6v716.8c0 84.48 69.12 153.6 153.6 153.6l491.52-2.56z" />
<glyph unicode="&#xe951;" glyph-name="icon_Siri-Mic" d="M535.040 40.96h-5.12v-71.68h102.4c10.24 0 15.36-7.68 15.36-17.92s-7.68-17.92-15.36-17.92h-240.64c-10.24 0-15.36 7.68-15.36 17.92s7.68 17.92 15.36 17.92h102.4v71.68h-5.12c-166.4 0-294.4 135.68-294.4 314.88v28.16c0 10.24 7.68 17.92 15.36 17.92s15.36-7.68 15.36-17.92v-28.16c0-161.28 110.080-281.6 261.12-281.6h43.52c151.040 0 261.12 117.76 261.12 281.6v28.16c0 10.24 7.68 17.92 15.36 17.92s15.36-7.68 15.36-17.92v-28.16c7.68-179.2-117.76-314.88-286.72-314.88zM670.72 601.6h-317.44v-53.76h317.44v53.76zM670.72 627.2v143.36c0 87.040-71.68 158.72-158.72 158.72s-158.72-71.68-158.72-158.72v-143.36h317.44zM670.72 522.24h-317.44v-163.84c0-87.040 71.68-158.72 158.72-158.72s158.72 71.68 158.72 158.72v163.84zM322.56 358.4v412.16c0 104.96 84.48 189.44 189.44 189.44s189.44-84.48 189.44-189.44v-412.16c0-104.96-84.48-189.44-189.44-189.44s-189.44 84.48-189.44 189.44z" />
<glyph unicode="&#xe952;" glyph-name="icon_Stars" d="M512 913.92c20.48 0 43.52-10.24 58.88-30.72 46.080-61.44 120.32-161.28 140.8-189.44 30.72-10.24 145.92-53.76 217.6-79.36 25.6-10.24 40.96-25.6 48.64-46.080 5.12-15.36 5.12-38.4-12.8-69.12-40.96-66.56-112.64-171.52-130.56-199.68 0-33.28-5.12-166.4-7.68-245.76-2.56-38.4-20.48-56.32-33.28-64-10.24-5.12-23.040-10.24-38.4-10.24-5.12 0-12.8 0-17.92 2.56-71.68 20.48-194.56 61.44-225.28 71.68-30.72-10.24-156.16-51.2-227.84-71.68-7.68-2.56-12.8-2.56-20.48-2.56-12.8 0-25.6 5.12-38.4 12.8s-25.6 25.6-28.16 61.44c-2.56 79.36-7.68 209.92-7.68 243.2-17.92 28.16-89.6 135.68-130.56 199.68-10.24 17.92-15.36 40.96-10.24 61.44 5.12 23.040 20.48 40.96 40.96 48.64 69.12 28.16 192 74.24 222.72 84.48 17.92 25.6 94.72 130.56 143.36 192 7.68 10.24 17.92 17.92 28.16 23.040 7.68 5.12 17.92 7.68 28.16 7.68zM512 960c-17.92 0-35.84-5.12-51.2-12.8s-30.72-20.48-43.52-35.84c-43.52-56.32-110.080-145.92-135.68-181.76-40.96-15.36-145.92-56.32-209.92-81.92-33.28-12.8-58.88-43.52-69.12-79.36-7.68-30.72-2.56-66.56 15.36-94.72 35.84-58.88 97.28-151.040 122.88-189.44 2.56-53.76 5.12-161.28 7.68-230.4 2.56-40.96 17.92-74.24 46.080-97.28 17.92-12.8 40.96-20.48 64-20.48 10.24 0 23.040 2.56 33.28 5.12 66.56 20.48 174.080 53.76 215.040 66.56 10.24-2.56 23.040-7.68 38.4-12.8 53.76-17.92 125.44-40.96 174.080-53.76 12.8-5.12 23.040-5.12 33.28-5.12 20.48 0 38.4 5.12 58.88 15.36s56.32 38.4 58.88 102.4c2.56 71.68 5.12 192 7.68 232.96 25.6 38.4 87.040 130.56 122.88 189.44 28.16 46.080 25.6 84.48 17.92 107.52s-28.16 56.32-76.8 74.24c-61.44 23.040-161.28 58.88-204.8 74.24-30.72 43.52-92.16 125.44-133.12 176.64-20.48 33.28-56.32 51.2-92.16 51.2z" />
<glyph unicode="&#xe953;" glyph-name="icon_Stars_active-Copy-2" d="M816.64-51.2c-17.92-7.68-38.4-15.36-61.44-7.68-79.36 23.040-212.48 66.56-245.76 76.8-35.84-10.24-171.52-56.32-250.88-79.36-23.040-7.68-46.080-2.56-64 10.24-12.8 10.24-28.16 28.16-30.72 66.56-2.56 87.040-7.68 230.4-7.68 266.24-20.48 30.72-97.28 148.48-143.36 220.16-12.8 20.48-15.36 43.52-10.24 66.56 5.12 25.6 23.040 43.52 46.080 53.76 76.8 30.72 209.92 81.92 243.2 94.72 20.48 28.16 104.96 143.36 156.16 209.92 7.68 10.24 17.92 20.48 30.72 25.6 33.28 17.92 71.68 7.68 97.28-25.6 51.2-66.56 133.12-179.2 153.6-207.36 33.28-12.8 161.28-58.88 238.080-87.040 28.16-10.24 46.080-28.16 53.76-48.64 5.12-15.36 7.68-40.96-15.36-74.24-46.080-71.68-122.88-189.44-143.36-217.6 0-35.84-5.12-184.32-7.68-268.8-2.56-48.64-20.48-66.56-38.4-74.24z" />
<glyph unicode="&#xe970;" glyph-name="icon_add" d="M576 512h414.72c17.92 0 33.28-15.36 33.28-33.28v-58.88c0-17.92-15.36-33.28-33.28-33.28h-414.72v-414.72c0-17.92-15.36-33.28-33.28-33.28h-58.88c-17.92 0-33.28 15.36-33.28 33.28v414.72h-414.72c-17.92 0-33.28 15.36-33.28 33.28v58.88c0 17.92 15.36 33.28 33.28 33.28h414.72v414.72c0 17.92 15.36 33.28 33.28 33.28h58.88c17.92 0 33.28-15.36 33.28-33.28v-414.72z" />
<glyph unicode="&#xe971;" glyph-name="icon_Animal" d="M1008.64 284.16c-2.56 2.56-5.12 2.56-10.24 5.12 0 23.040 2.56 125.44-7.68 168.96-10.24 46.080-43.52 64-64 76.8-5.12 2.56-12.8 5.12-15.36 10.24-10.24 7.68-25.6 7.68-35.84-2.56-12.8 17.92-28.16 35.84-43.52 48.64-43.52 33.28-138.24 20.48-186.88 15.36s-153.6-15.36-186.88 0c-30.72 15.36-79.36 64-87.040 84.48s-20.48 61.44-35.84 76.8l5.12 7.68c53.76 2.56 122.88 46.080 138.24 81.92 15.36 38.4 0 64-28.16 66.56s-79.36-30.72-115.2-51.2c-17.92-10.24-46.080-28.16-69.12-40.96v7.68c-30.72 33.28-110.080 35.84-140.8 0s-69.12-94.72-99.84-122.88c-30.72-28.16-38.4-56.32-20.48-69.12s56.32-33.28 87.040-23.040c25.6 7.68 51.2 5.12 74.24 2.56l-5.12-5.12c12.8-7.68 40.96-51.2 51.2-79.36s17.92-64 15.36-120.32c-2.56-56.32 15.36-92.16 38.4-115.2s99.84-53.76 115.2-76.8c12.8-23.040 20.48-87.040 25.6-110.080 2.56-23.040-2.56-148.48-2.56-148.48h58.88c0 0 2.56 56.32 2.56 122.88 2.56 66.56 23.040 99.84 43.52 130.56s110.080 40.96 161.28 28.16c51.2-12.8 53.76-61.44 56.32-92.16 5.12-30.72 0-189.44 0-189.44h56.32c0 12.8 0 181.76 2.56 207.36s23.040 58.88 53.76 97.28c30.72 38.4 58.88 128 56.32 176.64 0 12.8-2.56 25.6-5.12 38.4 0 0 0 0 0 0 20.48-12.8 33.28-20.48 38.4-40.96 7.68-35.84 7.68-130.56 7.68-163.84 0 0 0-2.56 0-2.56-2.56-2.56-5.12-5.12-7.68-10.24-10.24-20.48-12.8-48.64-2.56-66.56 2.56-5.12 5.12-10.24 10.24-15.36 5.12-10.24 12.8-23.040 15.36-25.6 0-7.68 5.12-15.36 12.8-17.92 2.56 0 2.56 0 5.12 0 5.12 0 12.8 2.56 15.36 7.68 15.36 28.16 30.72 61.44 30.72 89.6 7.68 20.48-2.56 30.72-7.68 38.4zM143.36 719.36c-10.24 0-15.36 7.68-15.36 15.36s7.68 15.36 15.36 15.36c7.68 0 15.36-7.68 15.36-15.36 2.56-7.68-5.12-15.36-15.36-15.36zM977.92 202.24c0 2.56-2.56 2.56-2.56 5.12-2.56 5.12-5.12 10.24-10.24 15.36-2.56 5.12-2.56 23.040 2.56 33.28 0 0 2.56 2.56 2.56 2.56s0 0 0 0 0 0 0 0c2.56 0 5.12 0 7.68 2.56 2.56 0 2.56 0 5.12-2.56s5.12-7.68 5.12-12.8c2.56-12.8-2.56-28.16-10.24-43.52z" />
<glyph unicode="&#xe972;" glyph-name="icon_Art" d="M1003.52 908.8c-87.040 87.040-350.72-133.12-491.52-273.92-143.36-143.36-360.96-407.040-273.92-491.52 12.8-12.8 30.72-20.48 53.76-20.48 38.4 0 89.6 20.48 153.6 61.44 87.040 53.76 186.88 135.68 284.16 232.96s181.76 199.68 235.52 284.16c61.44 102.4 74.24 168.96 38.4 207.36zM563.2 353.28l-112.64 112.64c5.12 7.68 12.8 12.8 17.92 20.48l115.2-115.2c-7.68-5.12-12.8-12.8-20.48-17.92zM284.16 186.88c-10.24 23.040 33.28 120.32 143.36 253.44l110.080-110.080c-135.68-107.52-230.4-151.040-253.44-143.36zM680.96 463.36c-15.36-15.36-33.28-30.72-48.64-46.080l-120.32 120.32c15.36 15.36 30.72 30.72 46.080 48.64 192 192 348.16 276.48 389.12 276.48 2.56 0 5.12 0 7.68 0 15.36-30.72-66.56-194.56-273.92-399.36zM76.8 61.44c-12.8-81.92-76.8-87.040-76.8-87.040s84.48-20.48 153.6 5.12c69.12 23.040 117.76 92.16 53.76 156.16-43.52 43.52-120.32 7.68-130.56-74.24z" />
<glyph unicode="&#xe973;" glyph-name="icon_Business" d="M640 30.72c20.48 0 40.96 0 61.44 0v148.48l-61.44-25.6v-122.88zM529.92 30.72c20.48 0 40.96 0 61.44 0v140.8l-61.44 56.32v-197.12zM422.4 30.72c20.48 0 40.96 0 61.44 0v240.64l-25.6 23.040-38.4-76.8v-186.88zM314.88 30.72c20.48 0 40.96 0 61.44 0v89.6l-2.56-7.68-58.88-2.56v-79.36zM97.28 30.72h61.44v166.4l-61.44-17.92v-148.48zM204.8 30.72c20.48 0 40.96 0 61.44 0v76.8l-51.2-2.56-10.24 15.36v-89.6zM1024 865.28l-163.84-312.32-66.56 104.96-40.96-28.16-25.6-366.080-97.28-38.4-184.32 171.52-102.4-215.040-102.4-5.12-61.44 99.84-145.92-46.080-33.28 110.080 186.88 58.88 43.52 12.8 23.040-38.4 28.16-46.080 92.16 192 33.28 71.68 58.88-53.76 153.6-143.36 17.92 273.92 2.56 28.16 23.040 15.36 66.56 43.52-58.88 94.72 353.28 15.36zM747.52 30.72h61.44v422.4l-20.48-7.68-15.36-235.52-23.040-10.24v-168.96z" />
<glyph unicode="&#xe974;" glyph-name="icon_Enterainment" d="M414.72 960c-230.4 0-414.72-158.72-414.72-353.28 0-69.12 23.040-133.12 64-186.88v-227.84l171.52 99.84c53.76-23.040 115.2-35.84 179.2-35.84 230.4 0 414.72 158.72 414.72 353.28s-184.32 350.72-414.72 350.72zM1024 350.72c0 64-28.16 120.32-74.24 168.96-46.080-222.72-268.8-391.68-535.040-391.68-7.68 0-12.8 0-20.48 2.56 66.56-40.96 151.040-66.56 243.2-66.56 28.16 0 56.32 2.56 84.48 7.68l235.52-135.68v256c43.52 46.080 66.56 99.84 66.56 158.72z" />
<glyph unicode="&#xe975;" glyph-name="icon_Environment" d="M622.080 296.96c261.12 46.080 289.28 250.88 138.24 481.28-20.48-140.8-66.56-314.88-138.24-481.28zM335.36 307.2c-25.6 145.92-61.44 284.16-125.44 404.48 66.56-92.16 143.36-227.84 184.32-378.88 143.36 168.96 48.64 348.16-215.040 412.16 25.6-64-43.52-125.44-33.28-243.2 15.36-120.32 148.48-179.2 189.44-194.56zM540.16 366.080c10.24-25.6 20.48-48.64 25.6-61.44 69.12 151.040 117.76 314.88 153.6 465.92-40.96-43.52-120.32-58.88-181.76-145.92-5.12-5.12-7.68-12.8-10.24-17.92 38.4-71.68 46.080-153.6 12.8-240.64zM494.080 166.4c-7.68 17.92-17.92 40.96-30.72 69.12-10.24-12.8-23.040-28.16-35.84-43.52l-20.48-23.040-25.6 10.24c-74.24 30.72-291.84 138.24-314.88 309.76-15.36 179.2 87.040 271.36 51.2 371.2 151.040-35.84 271.36-94.72 348.16-171.52 120.32 153.6 273.92 158.72 314.88 271.36 286.72-399.36 240.64-762.88-235.52-821.76-40.96-74.24-84.48-143.36-133.12-202.24l-66.56 40.96c56.32 56.32 104.96 120.32 148.48 189.44z" />
<glyph unicode="&#xe976;" glyph-name="icon_Food" d="M816.64 440.32c-10.24-66.56-28.16-128-51.2-186.88 15.36-10.24 35.84-15.36 56.32-15.36 28.16 0 53.76 10.24 71.68 30.72 17.92 17.92 30.72 43.52 30.72 71.68s-10.24 53.76-30.72 71.68c-17.92 17.92-43.52 30.72-71.68 30.72-2.56-2.56-5.12-2.56-5.12-2.56zM174.080 409.6c15.36-94.72 58.88-197.12 110.080-276.48l79.36 51.2c-43.52 69.12-84.48 158.72-97.28 240.64l-92.16-15.36zM330.24 606.72c-145.92 209.92 30.72 168.96-12.8 309.76 89.6-130.56-51.2-133.12 12.8-309.76zM465.92 650.24c-64 176.64 76.8 181.76-12.8 309.76 40.96-140.8-135.68-97.28 12.8-309.76zM599.040 591.36c-145.92 209.92 30.72 168.96-12.8 309.76 89.6-130.56-51.2-133.12 12.8-309.76zM783.36 527.36c10.24 2.56 23.040 2.56 35.84 2.56 53.76 0 102.4-20.48 135.68-56.32 35.84-35.84 56.32-81.92 56.32-135.68s-20.48-102.4-56.32-135.68c-35.84-35.84-84.48-56.32-135.68-56.32-35.84 0-66.56 10.24-94.72 25.6-17.92-33.28-38.4-64-58.88-92.16h222.72l-25.6-25.6c-69.12-74.24-166.4-115.2-266.24-115.2h-291.84c-99.84 0-197.12 40.96-266.24 115.2l-25.6 25.6h217.6c-97.28 130.56-151.040 279.040-161.28 450.56 238.080-2.56 476.16-2.56 714.24-2.56z" />
<glyph unicode="&#xe977;" glyph-name="icon_Health" d="M481.28 711.68l307.2-744.96h-747.52l373.76 906.24 53.76-128c5.12 2.56 7.68 2.56 12.8 2.56h376.32c12.8 0 23.040-7.68 23.040-17.92s-10.24-17.92-23.040-17.92h-2.56c-12.8 0-23.040-7.68-23.040-17.92s10.24-17.92 23.040-17.92h145.92c12.8 0 23.040-7.68 23.040-17.92s-10.24-17.92-23.040-17.92h-366.080c-12.8 0-23.040 7.68-23.040 17.92s10.24 17.92 23.040 17.92h40.96c12.8 0 23.040 7.68 23.040 17.92s-10.24 17.92-23.040 17.92h-194.56c0 0 0 0 0 0zM135.68 785.92h28.16c5.12 0 10.24-7.68 10.24-17.92s-5.12-17.92-10.24-17.92v0c-5.12 0-10.24-7.68-10.24-17.92s5.12-17.92 10.24-17.92h58.88c5.12 0 10.24-7.68 10.24-17.92s-5.12-17.92-10.24-17.92h-151.040c-5.12 0-10.24 7.68-10.24 17.92s5.12 17.92 10.24 17.92h15.36c5.12 0 10.24 7.68 10.24 17.92s-5.12 17.92-10.24 17.92h-79.36c-5.12 0-10.24 7.68-10.24 17.92s5.12 17.92 10.24 17.92h128zM619.52 890.88h-94.72c-17.92 0-30.72 7.68-30.72 20.48 0 10.24 12.8 20.48 30.72 20.48h94.72c17.92 0 30.72-7.68 30.72-20.48 0-10.24-12.8-20.48-30.72-20.48zM801.28-15.36l-112.64 276.48 84.48 235.52 230.4-501.76-202.24-10.24z" />
<glyph unicode="&#xe978;" glyph-name="icon_Lifestyle" d="M806.4 112.64l17.92 99.84-43.52-99.84h25.6zM880.64 74.24l7.68 38.4h-28.16l33.28 181.76h-74.24l-87.040-184.32-7.68-35.84h74.24l-5.12-33.28h53.76l5.12 33.28h28.16zM714.24 40.96l5.12 33.28h-66.56l84.48 120.32c5.12 7.68 7.68 15.36 10.24 25.6 5.12 28.16 5.12 46.080-2.56 58.88-5.12 12.8-23.040 17.92-48.64 17.92-40.96 0-66.56-15.36-71.68-48.64l-7.68-43.52h48.64l7.68 43.52c2.56 7.68 5.12 10.24 12.8 10.24s10.24-5.12 7.68-17.92c-5.12-20.48-10.24-38.4-20.48-51.2l-81.92-115.2-5.12-33.28h128zM947.2 35.84l15.36 89.6c0 5.12 0 7.68-2.56 10.24s-7.68 5.12-12.8 5.12c-7.68 0-12.8 0-15.36-5.12l5.12 28.16h-25.6l-23.040-128h25.6l15.36 84.48c0 2.56 2.56 5.12 5.12 5.12s5.12-2.56 2.56-5.12l-15.36-84.48h25.6zM509.44 496.64c-7.68 0-15.36 0-23.040-2.56-40.96 84.48-92.16 163.84-148.48 243.2-12.8-7.68-25.6-15.36-38.4-20.48 40.96-89.6 89.6-174.080 145.92-250.88-7.68-12.8-12.8-28.16-12.8-43.52 0-43.52 35.84-76.8 76.8-76.8 43.52 0 76.8 35.84 76.8 76.8 0 5.12 0 10.24-2.56 15.36 48.64 43.52 92.16 92.16 130.56 148.48-12.8 12.8-25.6 23.040-35.84 35.84-51.2-38.4-94.72-81.92-135.68-128-10.24 0-23.040 2.56-33.28 2.56zM504.32 952.32c-138.24 0-266.24-56.32-355.84-148.48-92.16-92.16-148.48-217.6-148.48-355.84s56.32-266.24 148.48-355.84c92.16-92.16 217.6-148.48 355.84-148.48 5.12 0 12.8 0 17.92 0-23.040 20.48-33.28 48.64-28.16 81.92l2.56 17.92c-107.52 2.56-207.36 46.080-276.48 117.76-74.24 74.24-117.76 174.080-117.76 286.72s46.080 212.48 117.76 286.72c74.24 74.24 174.080 117.76 286.72 117.76s212.48-46.080 286.72-117.76c74.24-74.24 117.76-174.080 117.76-286.72 0-15.36 0-33.28-2.56-48.64h79.36c7.68 0 15.36 0 20.48-2.56 2.56 17.92 2.56 33.28 2.56 51.2 0 138.24-56.32 266.24-148.48 355.84s-220.16 148.48-358.4 148.48zM637.44 350.72h345.6c25.6 0 43.52-20.48 38.4-46.080l-40.96-284.16c-2.56-25.6-28.16-46.080-53.76-46.080h-345.6c-25.6 0-43.52 20.48-38.4 46.080l40.96 284.16c5.12 25.6 28.16 46.080 53.76 46.080z" />
<glyph unicode="&#xe979;" glyph-name="icon_Music" d="M829.44 30.72c-94.72 0-174.080 79.36-174.080 174.080s79.36 174.080 174.080 174.080c53.76 0 99.84-23.040 133.12-58.88v409.6l-455.68-43.52c-76.8-5.12-138.24-69.12-138.24-145.92v-430.080c0-94.72-79.36-174.080-174.080-174.080s-174.080 79.36-174.080 174.080c0 94.72 79.36 174.080 174.080 174.080 53.76 0 99.84-23.040 133.12-58.88v499.2c0 97.28 79.36 181.76 176.64 186.88l473.6 46.080c5.12 0 10.24-2.56 15.36-5.12 0 0 0 0 2.56 0 5.12-5.12 10.24-10.24 10.24-17.92v-729.6c-2.56-97.28-79.36-174.080-176.64-174.080zM194.56 238.080c-71.68 0-133.12-58.88-133.12-133.12 0-71.68 58.88-133.12 133.12-133.12s133.12 58.88 133.12 133.12c-2.56 76.8-61.44 133.12-133.12 133.12zM368.64 721.92v-66.56c30.72 40.96 81.92 66.56 133.12 69.12l460.8 46.080v138.24l-455.68-43.52c-79.36-2.56-138.24-66.56-138.24-143.36zM829.44 335.36c-71.68 0-133.12-58.88-133.12-133.12s58.88-133.12 133.12-133.12 133.12 58.88 133.12 133.12c-2.56 71.68-58.88 133.12-133.12 133.12z" />
<glyph unicode="&#xe97a;" glyph-name="icon_People" d="M202.24 550.4c-5.12 53.76-5.12 92.16 10.24 145.92 61.44 38.4 138.24-23.040 230.4-2.56 10.24-43.52 12.8-81.92 10.24-145.92 0 0 35.84 30.72 40.96 56.32s-5.12 143.36-17.92 161.28c-51.2 74.24-235.52 76.8-291.84 12.8-15.36-17.92-33.28-176.64-15.36-197.12 15.36-20.48 33.28-30.72 33.28-30.72zM696.32 588.8c51.2-7.68 148.48 2.56 189.44 20.48 2.56-28.16 2.56-79.36-15.36-120.32-7.68-17.92-20.48-33.28-30.72-46.080l97.28-2.56c0 0-10.24 76.8-7.68 97.28 38.4 276.48-317.44 276.48-279.040 0 2.56-20.48-7.68-97.28-7.68-97.28l97.28 2.56c-12.8 12.8-23.040 25.6-30.72 46.080-10.24 33.28-12.8 71.68-12.8 99.84v0zM28.16 330.24c56.32 23.040 115.2 43.52 171.52 66.56 15.36 10.24 28.16 20.48 43.52 30.72l89.6-179.2 79.36 179.2c15.36-10.24 28.16-20.48 43.52-33.28l117.76-43.52c2.56 5.12 2.56 7.68 5.12 10.24 43.52 15.36 79.36 33.28 104.96 38.4 25.6-58.88 64-102.4 112.64-135.68 51.2 35.84 89.6 81.92 115.2 135.68 28.16-5.12 61.44-15.36 89.6-20.48 25.6-43.52 25.6-151.040 23.040-217.6h-363.52c0-28.16 0-58.88 0-89.6-220.16 0-440.32 0-660.48 0-2.56 122.88 5.12 212.48 28.16 258.56z" />
<glyph unicode="&#xe97b;" glyph-name="icon_Politics" d="M857.6 601.6c-61.44 20.48-135.68 35.84-220.16 43.52-7.68 15.36-15.36 28.16-25.6 40.96 25.6 15.36 48.64 30.72 71.68 40.96 64 30.72 112.64 43.52 130.56 25.6 15.36-15.36 7.68-56.32-15.36-112.64l79.36-23.040c35.84 84.48 35.84 153.6-5.12 194.56-46.080 46.080-128 38.4-225.28-10.24-25.6-12.8-53.76-28.16-81.92-48.64-20.48 28.16-40.96 51.2-61.44 74.24-74.24 79.36-148.48 112.64-207.36 87.040s-79.36-107.52-69.12-215.040c0-10.24 2.56-20.48 2.56-28.16l81.92 7.68c-2.56 10.24-2.56 20.48-5.12 30.72-7.68 71.68 0 120.32 23.040 130.56s64-17.92 115.2-69.12c17.92-17.92 35.84-40.96 53.76-64-23.040-17.92-46.080-38.4-71.68-58.88-102.4-5.12-192-23.040-263.68-46.080-102.4-35.84-166.4-89.6-166.4-153.6 0-61.44 58.88-112.64 153.6-148.48-43.52-92.16-48.64-171.52-5.12-212.48 46.080-46.080 128-38.4 225.28 10.24 58.88 28.16 122.88 71.68 189.44 128l-130.56 2.56c-33.28-23.040-64-40.96-94.72-56.32-64-30.72-112.64-43.52-130.56-25.6s-7.68 66.56 25.6 130.56v0c79.36-17.92 176.64-30.72 279.040-30.72 66.56 0 130.56 5.12 189.44 12.8 5.12-25.6 10.24-48.64 10.24-71.68 7.68-71.68 0-120.32-23.040-130.56s-64 17.92-115.2 69.12c-12.8 12.8-23.040 25.6-35.84 40.96l-69.12-43.52c15.36-20.48 30.72-38.4 46.080-53.76 74.24-79.36 148.48-112.64 207.36-87.040s79.36 107.52 69.12 215.040c-2.56 23.040-7.68 51.2-12.8 76.8 28.16 5.12 51.2 12.8 74.24 20.48 102.4 35.84 166.4 89.6 166.4 153.6s-56.32 117.76-158.72 153.6zM194.56 373.76v0c-69.12 23.040-112.64 51.2-112.64 74.24 0 25.6 40.96 51.2 110.080 74.24 40.96 12.8 89.6 25.6 143.36 33.28-58.88-61.44-104.96-125.44-140.8-181.76zM512 327.68c-87.040 0-166.4 7.68-235.52 23.040 38.4 58.88 89.6 120.32 151.040 181.76v0c12.8 12.8 23.040 23.040 35.84 33.28 15.36 0 33.28 0 48.64 0 25.6 0 51.2 0 74.24-2.56 10.24-20.48 23.040-43.52 33.28-66.56 25.6-53.76 46.080-107.52 61.44-158.72-51.2-5.12-110.080-10.24-168.96-10.24zM832 373.76c-20.48-7.68-43.52-12.8-69.12-20.48-17.92 56.32-38.4 117.76-66.56 179.2-2.56 7.68-7.68 15.36-10.24 23.040 56.32-7.68 104.96-20.48 148.48-33.28 69.12-23.040 110.080-51.2 110.080-74.24-2.56-25.6-46.080-51.2-112.64-74.24zM512 555.52c-58.88 0-107.52-48.64-107.52-107.52s48.64-107.52 107.52-107.52c58.88 0 107.52 48.64 107.52 107.52s-48.64 107.52-107.52 107.52zM437.76 419.84c-2.56 15.36-2.56 28.16 0 40.96l17.92-10.24c-5.12-7.68-12.8-17.92-17.92-30.72zM465.92 463.36l-23.040 15.36c10.24 28.16 30.72 46.080 61.44 48.64l7.68-23.040c-17.92-10.24-33.28-25.6-46.080-40.96zM542.72 519.68c-5.12-2.56-12.8-5.12-17.92-7.68l-5.12 12.8c10.24 0 15.36-2.56 23.040-5.12zM514.56 373.76c38.4 28.16 58.88 66.56 66.56 107.52 17.92-48.64-7.68-107.52-66.56-107.52z" />
<glyph unicode="&#xe97c;" glyph-name="icon_Science" d="M81.92 355.84c-20.48-7.68-38.4-7.68-56.32 0-7.68-53.76-17.92-107.52-25.6-161.28 5.12-2.56 12.8-5.12 17.92-7.68l5.12 17.92 2.56-20.48c10.24-2.56 20.48-2.56 30.72-2.56l5.12 17.92 7.68-15.36c2.56 0 2.56 0 5.12 0l2.56 74.24 12.8-69.12c5.12 2.56 10.24 2.56 15.36 5.12-7.68 51.2-15.36 107.52-23.040 161.28zM1024 706.56v-92.16l-476.16-74.24-476.16 66.56v-171.52c10.24-5.12 17.92-17.92 17.92-30.72 0-20.48-15.36-35.84-35.84-35.84s-35.84 15.36-35.84 35.84c0 12.8 7.68 25.6 17.92 30.72 0 89.6 0 181.76 0 271.36l514.56 76.8 473.6-76.8zM186.88 192c125.44-2.56 245.76-23.040 355.84-79.36 115.2 51.2 232.96 84.48 350.72 81.92v355.84l-345.6-53.76-363.52 51.2v-355.84z" />
<glyph unicode="&#xe97d;" glyph-name="icon_Sports" d="M204.8 678.4c-15.36-20.48-28.16-40.96-38.4-64-5.12-10.24-7.68-17.92-12.8-28.16 64 12.8 145.92 5.12 230.4-17.92-5.12-12.8-12.8-23.040-17.92-35.84-10.24-20.48-20.48-40.96-28.16-64-58.88 5.12-125.44-17.92-204.8-81.92 2.56-23.040 10.24-46.080 17.92-66.56 0-2.56 2.56-5.12 2.56-7.68l10.24-12.8c53.76 48.64 102.4 69.12 143.36 74.24-23.040-81.92-33.28-161.28-28.16-230.4 20.48-15.36 43.52-30.72 69.12-43.52v0c2.56 0 5.12-2.56 7.68-2.56l17.92 5.12c-17.92 69.12-10.24 158.72 17.92 253.44 48.64-25.6 92.16-76.8 138.24-128 40.96-48.64 81.92-97.28 133.12-135.68 17.92 7.68 35.84 15.36 51.2 25.6l17.92 28.16c-48.64 33.28-94.72 87.040-138.24 138.24-56.32 64-107.52 128-171.52 161.28 7.68 17.92 15.36 35.84 23.040 51.2s15.36 30.72 23.040 43.52c23.040-10.24 48.64-20.48 71.68-30.72 128-61.44 245.76-151.040 309.76-248.32 2.56 7.68 7.68 12.8 10.24 20.48v0c10.24 23.040 20.48 48.64 25.6 71.68-76.8 94.72-189.44 176.64-309.76 232.96-20.48 10.24-43.52 20.48-64 28.16 12.8 17.92 23.040 33.28 35.84 51.2 23.040-12.8 46.080-20.48 66.56-25.6 107.52-20.48 194.56 20.48 194.56 20.48l-28.16 64c-2.56 2.56-7.68 7.68-12.8 10.24-17.92-7.68-71.68-25.6-138.24-12.8-7.68 2.56-17.92 5.12-25.6 7.68 23.040 23.040 48.64 46.080 71.68 64-30.72 15.36-64 25.6-97.28 30.72-17.92-15.36-33.28-33.28-51.2-48.64-23.040 17.92-46.080 38.4-61.44 53.76-25.6-2.56-51.2-7.68-74.24-15.36l-15.36-15.36c0 0 40.96-46.080 97.28-87.040-15.36-23.040-33.28-43.52-46.080-69.12-79.36 25.6-156.16 38.4-222.72 35.84zM51.2 668.16c61.44 128 168.96 217.6 291.84 261.12s263.68 38.4 391.68-20.48c128-61.44 217.6-168.96 261.12-291.84s40.96-263.68-20.48-391.68c-61.44-128-168.96-217.6-291.84-261.12s-263.68-40.96-391.68 20.48v0c-128 61.44-217.6 168.96-261.12 291.84-46.080 125.44-40.96 266.24 20.48 391.68z" />
<glyph unicode="&#xe97e;" glyph-name="icon_Technology" d="M419.84 363.52l30.72 5.12 15.36 76.8 15.36-40.96 35.84 35.84 58.88-112.64 30.72 5.12 20.48 84.48 10.24-12.8 15.36-20.48 12.8 20.48 38.4 56.32 46.080-102.4 33.28 2.56 12.8 66.56h94.72v33.28h-122.88l-2.56-12.8-5.12-28.16-35.84 81.92-30.72 2.56-40.96-61.44-17.92 25.6-23.040 30.72-25.6-115.2-48.64 94.72-10.24 20.48-30.72-30.72-17.92 51.2-33.28-2.56-15.36-84.48-5.12 12.8-5.12 10.24h-66.56v-43.52h43.52zM181.76 448h-153.6v122.88h153.6v28.16h-153.6v122.88h314.88v102.4h-343.040v-750.080h343.040v74.24h-161.28v299.52zM97.28 307.2h-64v35.84h64v-35.84zM97.28 366.080h-64v35.84h64v-35.84zM58.88 693.76h122.88v-61.44h-122.88v61.44zM58.88 540.16h122.88v-61.44h-122.88v61.44zM757.76 174.080h-253.44v-61.44h-51.2v-38.4h363.52v38.4h-58.88zM990.72 675.84h-760.32v-478.72h793.6v478.72h-33.28zM934.4 276.48h-614.4v314.88h614.4v-314.88z" />
<glyph unicode="&#xe97f;" glyph-name="icon_Universe" d="M120.32 174.080c-66.56 0-120.32-53.76-120.32-120.32s53.76-120.32 120.32-120.32c66.56 0 120.32 53.76 120.32 120.32-2.56 66.56-56.32 120.32-120.32 120.32zM120.32 0c-30.72 0-56.32 25.6-56.32 56.32s25.6 56.32 56.32 56.32c30.72 0 56.32-25.6 56.32-56.32-2.56-30.72-25.6-56.32-56.32-56.32zM512 849.92c-222.72 0-401.92-179.2-401.92-401.92s179.2-401.92 401.92-401.92 401.92 179.2 401.92 401.92-179.2 401.92-401.92 401.92zM512 110.080c-156.16 0-289.28 107.52-327.68 250.88h304.64c12.8 0 23.040 10.24 23.040 23.040s-10.24 23.040-23.040 23.040h-314.88c-2.56 15.36-2.56 28.16-2.56 43.52h273.92c12.8 0 23.040 10.24 23.040 23.040s-10.24 23.040-23.040 23.040h-271.36c2.56 15.36 5.12 28.16 7.68 43.52h197.12c12.8 0 23.040 10.24 23.040 23.040s-10.24 23.040-23.040 23.040h-181.76c51.2 122.88 171.52 207.36 312.32 207.36s261.12-87.040 312.32-207.36h-268.8c-12.8 0-23.040-10.24-23.040-23.040s10.24-23.040 23.040-23.040h284.16c7.68-28.16 12.8-56.32 12.8-87.040 0-15.36 0-28.16-2.56-43.52h-204.8c-12.8 0-23.040-10.24-23.040-23.040s10.24-23.040 23.040-23.040h197.12c-5.12-15.36-7.68-30.72-15.36-43.52h-312.32c-12.8 0-23.040-10.24-23.040-23.040s10.24-23.040 23.040-23.040h289.28c-58.88-99.84-166.4-163.84-289.28-163.84zM903.68 960c-66.56 0-120.32-53.76-120.32-120.32s53.76-120.32 120.32-120.32c66.56 0 120.32 53.76 120.32 120.32s-53.76 120.32-120.32 120.32zM903.68 785.92c-30.72 0-56.32 25.6-56.32 56.32s25.6 56.32 56.32 56.32c30.72 0 56.32-25.6 56.32-56.32 0-33.28-25.6-56.32-56.32-56.32zM424.96 317.44h-87.040c-12.8 0-23.040-10.24-23.040-23.040s10.24-23.040 23.040-23.040h87.040c12.8 0 23.040 10.24 23.040 23.040-2.56 12.8-10.24 23.040-23.040 23.040zM535.040 448h87.040c12.8 0 23.040 10.24 23.040 23.040s-10.24 23.040-23.040 23.040h-87.040c-12.8 0-23.040-10.24-23.040-23.040s10.24-23.040 23.040-23.040z" />
</font>
</defs>
</svg>
